<?xml version="1.0" encoding="UTF-8"?>
<svg xmlns="http://www.w3.org/2000/svg" viewBox="-3 -2 56 50">
<defs><style>.b{fill:#004ca1}.g{fill:#009641}.r{fill:#c4181f}.t{fill:#727171}</style></defs>
<path class="b" d="m30.74,0c11.13,2.7,17.96,13.92,15.26,25.05-2.7,11.13-13.92,17.96-25.05,15.26-5.32-1.29-9.92-4.64-12.79-9.31,5.01,11.11,18.08,16.06,29.19,11.06,11.11-5.01,16.06-18.08,11.06-29.19C45.21,5.76,38.49.87,30.74,0Z"/>
<path class="g" d="m25.87.75c-10.72,0-19.41,8.68-19.42,19.4,0,1.62.2,3.23.6,4.8-.09-.78-.13-1.56-.12-2.35-.05-10,8.01-18.14,18.01-18.19,10-.05,18.14,8.01,18.19,18.01.03,5.11-2.11,10-5.89,13.45,8.67-6.31,10.58-18.46,4.27-27.13-3.64-5-9.45-7.97-15.64-7.99Z"/>
<path class="r" d="m0,20.17c2.34,0,4.21.42,5,2.82.68,2,.41,3.41,2.59,4.17,0,0-4.46.49-5.3-2.47-.68-2.41-.56-3.59-2.29-4.52Z"/>
<path class="r" d="m20.16,20.32c-4.58,0-7,.86-8.24,3.22-1.47,2.8-2.38,3.91-6.66,4.79,0,0,7.26,1.09,9.22-2.84,1.38-2.75,2.07-4.11,5.68-5.17Z"/>
<path class="r" d="m0,37.2c2.34,0,4.21-.42,5-2.81.68-2,.41-3.42,2.59-4.18,0,0-4.46-.49-5.3,2.47-.68,2.42-.56,3.59-2.29,4.52Z"/>
<path class="r" d="m20.16,37.05c-4.58,0-7-.86-8.24-3.22-1.47-2.8-2.38-3.91-6.66-4.79,0,0,7.26-1.08,9.22,2.84,1.38,2.75,2.07,4.11,5.68,5.17Z"/>
<path class="t" d="m12.93,12.72c0-.52-.06-.55-.82-.59v-.34h3v.34c-.75,0-.81.07-.81.59v2.25l1-1.13c.49-.54.92-1,1.19-1.37s.13-.29,0-.3h-.42v-.34h2.58v.34c-.47-.03-.94.14-1.29.46-.71.6-1.37,1.24-2,1.92.72,1.09,1.51,2.13,2.36,3.12.2.27.47.48.78.62h.09v.34h-.59c-.85.04-1.65-.38-2.11-1.09-.58-.73-1.11-1.5-1.57-2.31h0v2.43c0,.52.06.54.81.59v.34h-3v-.34c.76-.05.82-.07.82-.59l-.02-4.94Z"/>
<path class="t" d="m21.93,18.3c-1.53,0-1.79-1.76-1.81-3.13s.28-3.12,1.81-3.12,1.79,1.8,1.81,3.12c.02,1.32-.29,3.13-1.81,3.13Zm0,.4c.92.07,1.83-.27,2.48-.93.6-.73.9-1.66.84-2.6.06-.94-.24-1.87-.84-2.6-.65-.66-1.56-1-2.48-.93-.92-.06-1.82.27-2.46.93-.61.73-.91,1.66-.86,2.6-.06.94.25,1.88.86,2.6.64.66,1.54.99,2.46.93Z"/>
<path class="t" d="m28.15,15.16h.57c.8-.08,1.52.51,1.6,1.31,0,.09,0,.17,0,.26.11.68-.36,1.31-1.03,1.42-.12.02-.24.02-.36,0-.6,0-.8-.15-.8-.68l.02-2.31Zm-2.16,3.4h3.19c.7.05,1.4-.12,2-.49.41-.34.63-.85.6-1.38-.01-.96-.78-1.74-1.74-1.77h0c.94-.2,1.45-.73,1.45-1.51.04-.5-.21-.98-.64-1.24-.55-.29-1.18-.41-1.8-.36h-3.06v.34c.76,0,.82.07.82.59v4.91c0,.52-.06.54-.82.59v.32Zm2.16-3.81v-2.14c0-.36.14-.4.65-.41.64-.09,1.23.35,1.32.99.01.09.01.18,0,.27,0,.81-.47,1.29-1.44,1.29h-.54Z"/>
<path class="t" d="m32.58,18.22c.75-.05.81-.07.81-.59v-4.91c0-.52-.06-.55-.81-.59v-.34h5.15v1.73h-.35c-.23-1-.43-1.32-1.48-1.32h-.8c-.3,0-.36.07-.36.35v2.24h1.09c.69,0,.79-.2.92-.87h.34v2.19h-.34c-.13-.67-.23-.86-.92-.86h-1.09v2.12c0,.43.08.64.29.71.31.06.62.09.93.07,1.18,0,1.45-.41,1.76-1.5h.34l-.13,1.91h-5.35v-.34Z"/>
<path class="t" d="m20.46,24.06c0,.2-.04.41-.13.59-.23.32-.61.48-1,.43-.38.05-.77-.11-1-.42-.09-.19-.13-.39-.12-.6v-1.43c0-.21,0-.22-.33-.24v-.14h1.22v.14c-.31,0-.34,0-.34.24v1.44c0,.41.12.84.59.84s.58-.43.58-.84v-1.44c0-.21,0-.22-.33-.24v-.14h1.21v.14c-.3,0-.33,0-.33.24l-.02,1.43Z"/>
<path class="t" d="m21.93,22.25c.44.67.9,1.34,1.36,2h0v-1.06c.01-.19.01-.39,0-.58,0-.13-.06-.19-.17-.2h-.21v-.14h1v.14h-.15c-.09,0-.14.07-.16.2s0,.29,0,.58v1.83h-.38c-.5-.77-1-1.53-1.53-2.3h0v1.94c0,.14.06.18.17.19l.07.02v.15h-1v-.15h.15c.09,0,.14-.07.16-.2s0-.3,0-.58v-1.46c0-.21,0-.22-.34-.24v-.14h1.03Z"/>
<path class="t" d="m24.93,24.63c0,.21,0,.23.33.24v.15h-1.22v-.15c.31,0,.33,0,.33-.24v-2c0-.21,0-.22-.33-.24v-.14h1.21v.14c-.31,0-.33,0-.33.24v2Z"/>
<path class="t" d="m26.02,23.72c0-.14-.33-1-.38-1.11s-.11-.21-.32-.22v-.14h1.14v.14h-.19c-.1,0-.1.06-.07.14l.31,1,.33,1h0c0-.13.31-.91.36-1.07.1-.29.19-.58.26-.87,0-.08,0-.12-.08-.13h-.21v-.14h.91v.14c-.22,0-.27,0-.35.23s-.21.57-.37,1l-.43,1.33h-.42l-.49-1.3Z"/>
<path class="t" d="m28.07,24.87c.31,0,.33,0,.33-.24v-2c0-.21,0-.22-.33-.24v-.14h2.11v.71h-.15c-.09-.4-.17-.54-.6-.54h-.33c-.12,0-.15,0-.15.14v.92h.45c.28,0,.32-.08.37-.36h.16v.9h-.14c-.05-.28-.09-.35-.37-.35h-.49v.86c0,.17,0,.26.12.29.13.01.26.01.39,0,.47,0,.59-.16.71-.6h.14l-.05.78h-2.17v-.13Z"/>
<path class="t" d="m31.43,23.57v-1c0-.13,0-.17.27-.17.27-.03.51.17.53.44,0,.04,0,.08,0,.12,0,.37-.16.59-.56.59l-.24.02Zm0,.16h.22c.2-.02.38.12.4.32,0,0,0,0,0,.01,0,.13.07.38.13.57s.25.39.6.39h.31v-.15c-.07,0-.14-.03-.2-.08-.12-.12-.19-.28-.2-.45,0-.33-.13-.6-.54-.7h0c.37-.02.66-.31.67-.68,0-.39-.23-.7-.95-.7h-1.32v.14c.31,0,.33,0,.33.24v2c0,.21,0,.23-.33.24v.15h1.21v-.16c-.3,0-.33,0-.33-.24v-.9Z"/>
<path class="t" d="m34.93,22.99c-.09-.45-.32-.63-.59-.63-.24-.02-.44.16-.46.4,0,.01,0,.03,0,.04,0,.29.29.44.55.54l.12.05c.38.15.7.37.7.83s-.25.85-1,.86c-.3.01-.59-.08-.84-.25v-.69h.14c.14.48.42.77.75.77.24.03.46-.14.49-.38,0-.03,0-.06,0-.1,0-.29-.2-.45-.47-.56h-.09c-.38-.15-.78-.38-.78-.84s.32-.8,1-.8c.25,0,.5.06.72.18v.62l-.24-.04Z"/>
<path class="t" d="m36.43,24.63c0,.21,0,.23.33.24v.15h-1.21v-.15c.3,0,.33,0,.33-.24v-2c0-.21,0-.22-.33-.24v-.14h1.21v.14c-.31,0-.33,0-.33.24v2Z"/>
<path class="t" d="m37.46,24.87h.24c.14,0,.16-.06.16-.21v-2.24h-.18c-.41,0-.47.14-.58.55h-.17v-.72h2.34v.72h-.14c-.1-.41-.16-.55-.57-.55h-.18v2.22c0,.15,0,.2.16.21h.24v.15h-1.32v-.13Z"/>
<path class="t" d="m40,24.87c.37,0,.39,0,.39-.24v-.58c0-.09-.03-.18-.07-.26l-.61-1.18c-.09-.18-.13-.21-.34-.22v-.14h1.18v.14h-.22c-.08,0-.09.05,0,.12l.53,1.13h0c.18-.38.41-.85.51-1.11v-.15h-.21v-.14h.93v.14c-.24,0-.29.05-.4.23s-.4.74-.59,1.14c-.04.08-.07.17-.07.26v.61c0,.21,0,.23.4.24v.15h-1.43v-.14Z"/>
</svg>